static pose
version=1
nRows=1
nColumns=73
inDegrees=no
endheader
time	/jointset/ground_pelvis/pelvis_tilt/value	/jointset/ground_pelvis/pelvis_tilt/speed	/jointset/ground_pelvis/pelvis_list/value	/jointset/ground_pelvis/pelvis_list/speed	/jointset/ground_pelvis/pelvis_rotation/value	/jointset/ground_pelvis/pelvis_rotation/speed	/jointset/ground_pelvis/pelvis_tx/value	/jointset/ground_pelvis/pelvis_tx/speed	/jointset/ground_pelvis/pelvis_ty/value	/jointset/ground_pelvis/pelvis_ty/speed	/jointset/ground_pelvis/pelvis_tz/value	/jointset/ground_pelvis/pelvis_tz/speed	/jointset/hip_r/hip_flexion_r/value	/jointset/hip_r/hip_flexion_r/speed	/jointset/hip_r/hip_adduction_r/value	/jointset/hip_r/hip_adduction_r/speed	/jointset/hip_r/hip_rotation_r/value	/jointset/hip_r/hip_rotation_r/speed	/jointset/knee_r/knee_angle_r/value	/jointset/knee_r/knee_angle_r/speed	/jointset/ankle_r/ankle_angle_r/value	/jointset/ankle_r/ankle_angle_r/speed	/jointset/mtp_r/mtp_angle_r/value	/jointset/mtp_r/mtp_angle_r/speed	/jointset/hip_l/hip_flexion_l/value	/jointset/hip_l/hip_flexion_l/speed	/jointset/hip_l/hip_adduction_l/value	/jointset/hip_l/hip_adduction_l/speed	/jointset/hip_l/hip_rotation_l/value	/jointset/hip_l/hip_rotation_l/speed	/jointset/knee_l/knee_angle_l/value	/jointset/knee_l/knee_angle_l/speed	/jointset/ankle_l/ankle_angle_l/value	/jointset/ankle_l/ankle_angle_l/speed	/jointset/mtp_l/mtp_angle_l/value	/jointset/mtp_l/mtp_angle_l/speed	/forceset/hamstrings_r/activation	/forceset/hamstrings_r/normalized_tendon_force	/forceset/bifemsh_r/activation	/forceset/bifemsh_r/normalized_tendon_force	/forceset/glut_max_r/activation	/forceset/glut_max_r/normalized_tendon_force	/forceset/iliopsoas_r/activation	/forceset/iliopsoas_r/normalized_tendon_force	/forceset/rect_fem_r/activation	/forceset/rect_fem_r/normalized_tendon_force	/forceset/vasti_r/activation	/forceset/vasti_r/normalized_tendon_force	/forceset/gastroc_r/activation	/forceset/gastroc_r/normalized_tendon_force	/forceset/soleus_r/activation	/forceset/soleus_r/normalized_tendon_force	/forceset/dorsiflexors_r/activation	/forceset/dorsiflexors_r/normalized_tendon_force	/forceset/hamstrings_l/activation	/forceset/hamstrings_l/normalized_tendon_force	/forceset/bifemsh_l/activation	/forceset/bifemsh_l/normalized_tendon_force	/forceset/glut_max_l/activation	/forceset/glut_max_l/normalized_tendon_force	/forceset/iliopsoas_l/activation	/forceset/iliopsoas_l/normalized_tendon_force	/forceset/rect_fem_l/activation	/forceset/rect_fem_l/normalized_tendon_force	/forceset/vasti_l/activation	/forceset/vasti_l/normalized_tendon_force	/forceset/gastroc_l/activation	/forceset/gastroc_l/normalized_tendon_force	/forceset/soleus_l/activation	/forceset/soleus_l/normalized_tendon_force	/forceset/dorsiflexors_l/activation	/forceset/dorsiflexors_l/normalized_tendon_force
      0.00000000	     -0.05069217	      0.00000000	     -0.02251346	      0.00000000	     -0.01381933	      0.00000000	      0.84198427	      0.00000000	      1.07258024	      0.00000000	      1.21373384	      0.00000000	     -0.06478553	      0.00000000	     -0.07586251	      0.00000000	      0.09238911	      0.00000000	      0.12829699	      0.00000000	     -0.14788610	      0.00000000	      0.00000000	      0.00000000	     -0.07568675	      0.00000000	     -0.10840757	      0.00000000	      0.07749333	      0.00000000	      0.14376534	      0.00000000	     -0.16705112	      0.00000000	      0.00000000	      0.00000000	      0.05000000	      0.50000000	      0.05000000	      0.50000000	      0.05000000	      0.50000000	      0.05000000	      0.50000000	      0.05000000	      0.50000000	      0.05000000	      0.50000000	      0.05000000	      0.50000000	      0.05000000	      0.50000000	      0.05000000	      0.50000000	      0.05000000	      0.50000000	      0.05000000	      0.50000000	      0.05000000	      0.50000000	      0.05000000	      0.50000000	      0.05000000	      0.50000000	      0.05000000	      0.50000000	      0.05000000	      0.50000000	      0.05000000	      0.50000000	      0.05000000	      0.50000000
